PathFileType	4	(X/Y/Z)	C:/Users/opensim2020/Desktop/walking_exp_matlab/subject06_walking21_straight_01_cyclic.trc	
DataRate	CameraRate	NumFrames	NumMarkers	Units	OrigDataRate	OrigDataStartFrame	OrigNumFrames	
100.00	100.00	6	44	mm	100.00	836	102	
Frame#	Time	LFHD			RFHD			LBHD			RBHD			C7			T10			CLAV			STRN			RBAK			LSHO			LUPA			LELB			LFRM			LWRA			LWRB			LFIN			RSHO			RUPA			RELB			RFRM			RWRA			RWRB			RFIN			LASI			RASI			LPSI			RPSI			LTHI			LKNE			LTIB			LANK			LHEE			LTOE			RTHI			RKNE			RTIB			RANK			RHEE			RTOE			*39			*40			*41			*42			*43			
		X1	Y1	Z1	X2	Y2	Z2	X3	Y3	Z3	X4	Y4	Z4	X5	Y5	Z5	X6	Y6	Z6	X7	Y7	Z7	X8	Y8	Z8	X9	Y9	Z9	X10	Y10	Z10	X11	Y11	Z11	X12	Y12	Z12	X13	Y13	Z13	X14	Y14	Z14	X15	Y15	Z15	X16	Y16	Z16	X17	Y17	Z17	X18	Y18	Z18	X19	Y19	Z19	X20	Y20	Z20	X21	Y21	Z21	X22	Y22	Z22	X23	Y23	Z23	X24	Y24	Z24	X25	Y25	Z25	X26	Y26	Z26	X27	Y27	Z27	X28	Y28	Z28	X29	Y29	Z29	X30	Y30	Z30	X31	Y31	Z31	X32	Y32	Z32	X33	Y33	Z33	X34	Y34	Z34	X35	Y35	Z35	X36	Y36	Z36	X37	Y37	Z37	X38	Y38	Z38	X39	Y39	Z39	X40	Y40	Z40	X41	Y41	Z41	X42	Y42	Z42	X43	Y43	Z43	X44	Y44	Z44	

77	0.760	-1064.64001	-9.42575	1662.68311	-934.55383	-21.19145	1644.46594	-1080.17212	-143.09921	1614.34644	-952.16003	-153.41437	1600.62256	-1026.47778	-154.28055	1451.38867	-1017.71411	-199.53188	1124.49866	-1023.94128	-46.36147	1371.52209	-1032.53357	-11.41554	1197.03833	-949.32861	-234.05693	1284.04639	-1186.08862	-100.96373	1405.52539	-1261.97717	-89.03786	1204.34937	-1277.25342	-79.90676	1091.99646	-1298.42285	-18.09687	955.05566	-1254.52588	70.99410	862.74536	-1292.84973	15.65243	840.30829	-1294.69653	79.83684	777.06763	-863.09692	-94.19588	1404.38196	-776.65796	-159.75221	1214.60071	-763.81097	-168.01283	1092.25586	-744.27466	-173.98039	972.12109	-771.95642	-140.73950	823.75977	-732.85345	-194.34740	835.21271	-730.42462	-172.38998	753.28265	-1131.89575	-30.14497	963.76697	-912.62823	-21.99329	966.77118	-1097.56750	-185.38782	991.67090	-930.33112	-173.52895	988.16803	-1181.58093	-98.38110	646.16290	-1152.73010	-96.79445	482.70593	-1139.13525	-165.05919	233.14572	-1089.43530	-196.09241	65.14118	-1045.55103	-239.42171	53.63629	-1084.60022	-54.07861	34.62001	-862.52893	17.05025	645.18622	-892.03088	68.08270	531.88379	-890.21088	-28.56729	288.78360	-928.33582	-98.69044	115.77935	-974.17859	-143.19815	99.06367	-924.07281	35.56858	46.63018	-1012.39587	-112.76286	1701.58459												 
78	0.770	-1064.33777	3.98219	1661.44031	-934.21564	-7.97273	1642.94031	-1080.14795	-129.73706	1613.33533	-952.10309	-140.31638	1599.37585	-1026.64600	-141.19739	1450.31360	-1017.94836	-186.80334	1123.50781	-1024.21130	-33.36804	1370.30566	-1033.37317	1.26535	1195.76062	-949.87701	-221.11737	1282.93738	-1186.33984	-87.98817	1404.66577	-1262.25256	-73.63874	1203.86975	-1277.50659	-61.77866	1091.66565	-1297.98340	4.87917	956.94568	-1253.03918	97.08955	868.39282	-1291.64087	42.95307	843.55096	-1292.23352	109.33398	782.57263	-863.33508	-81.18408	1402.98926	-777.17761	-148.07144	1213.60510	-764.43500	-157.31717	1091.40820	-744.78253	-164.74213	971.31183	-772.24170	-133.36896	822.53290	-733.03833	-186.76900	834.78650	-730.72119	-165.90096	752.48700	-1132.89514	-18.14242	962.31561	-913.57434	-8.78852	966.05585	-1097.41663	-173.30789	990.45868	-930.31482	-160.34189	987.16113	-1180.98364	-88.66901	644.96619	-1152.48059	-90.25946	481.38385	-1138.53650	-162.04660	232.81213	-1089.00647	-195.48814	65.25838	-1044.73022	-239.44437	54.36216	-1084.65479	-53.67374	34.66277	-861.74988	32.49548	645.99457	-891.84991	84.59180	533.16644	-890.77008	-0.93282	285.30310	-929.74420	-60.30878	108.39761	-975.67065	-104.20491	90.08236	-923.90582	76.87434	45.35083	-1012.15564	-99.39295	1700.37683												 
79	0.780	-1064.02734	17.41670	1659.93616	-933.86328	5.18591	1641.34363	-1080.06860	-116.39105	1612.13733	-952.09204	-127.02447	1597.86694	-1026.90845	-128.32355	1449.22546	-1018.07959	-174.02614	1122.31458	-1024.48657	-20.38983	1368.90369	-1034.11816	14.03906	1194.29321	-950.28839	-208.15067	1281.62354	-1186.55371	-74.87550	1403.68872	-1262.45178	-58.32940	1203.25977	-1277.88354	-44.03713	1091.43835	-1297.40417	27.46286	958.93262	-1251.38916	122.76055	874.36761	-1290.23267	69.86868	847.12439	-1289.13025	138.48840	788.34082	-863.54871	-68.17407	1401.39673	-777.43799	-136.15175	1212.49915	-764.94226	-146.56291	1090.37842	-745.28363	-155.29567	970.39081	-772.44244	-125.51421	821.21698	-733.52356	-179.01405	834.02704	-730.90161	-159.14117	751.51093	-1133.90222	-6.11038	960.62177	-914.33960	4.37960	964.87842	-1097.30371	-161.06247	988.99182	-930.22571	-147.28651	985.96716	-1180.73523	-79.28959	643.59625	-1152.25720	-83.80940	479.96402	-1138.09631	-159.26012	232.33273	-1088.55774	-194.96710	65.45238	-1043.66345	-239.33821	55.30566	-1084.71472	-53.49255	34.77990	-861.60498	47.14433	645.74072	-891.51215	100.75010	533.81287	-891.19165	26.88239	281.83759	-930.84290	-21.70134	101.82354	-977.26337	-64.02213	81.84545	-924.13617	117.84809	44.25536	-1011.81677	-85.99892	1699.02808												 
80	0.790	-1063.64258	30.77788	1658.20142	-933.47565	18.42696	1639.46692	-1079.89819	-103.04623	1610.72839	-951.93872	-113.88449	1596.18738	-1027.03235	-115.18645	1447.74719	-1018.19550	-161.21663	1121.10364	-1024.72083	-7.33339	1367.30957	-1034.82922	26.85705	1192.65137	-950.58087	-195.33742	1280.14832	-1186.61487	-61.80297	1402.50598	-1262.64746	-42.96316	1202.52466	-1277.97937	-26.35273	1090.90637	-1296.76270	49.58847	960.95386	-1249.58252	147.80879	880.51074	-1288.59058	96.40650	850.99878	-1285.87964	167.13582	794.54449	-863.71234	-55.12863	1399.62463	-778.04169	-124.51567	1211.18445	-765.41675	-135.67001	1089.15039	-745.64880	-145.79141	969.30518	-772.54474	-117.55640	819.64124	-733.56104	-170.82071	833.27081	-731.00006	-152.06709	750.44849	-1134.81909	6.16907	958.86609	-915.13171	17.71984	963.59436	-1097.18018	-148.73029	987.34808	-930.23315	-133.95366	984.55267	-1180.44824	-69.94688	642.10944	-1151.73071	-77.12980	478.40179	-1137.48083	-156.27315	231.99934	-1088.13940	-194.41006	65.66171	-1043.23840	-238.95946	55.81191	-1084.54211	-53.37049	34.58994	-861.14899	61.48594	645.21649	-891.18091	115.95705	533.78546	-891.49329	54.62635	278.28757	-931.89716	16.91656	95.96094	-978.75726	-24.24773	74.63602	-924.78943	158.63800	43.60965	-1011.49280	-72.70007	1697.38940												 
81	0.800	-1063.15198	44.10913	1656.58105	-933.07782	31.65975	1637.51233	-1079.71667	-89.71557	1609.08813	-951.79297	-100.67944	1594.33972	-1027.08484	-102.06828	1446.09509	-1018.17535	-148.16899	1119.26575	-1024.81824	5.78514	1365.57727	-1035.43408	39.69801	1190.81396	-950.86469	-182.29317	1278.45435	-1186.64697	-48.58148	1401.11353	-1262.78259	-27.68820	1201.60913	-1278.27283	-9.20119	1090.34985	-1295.97937	71.32880	963.03479	-1247.41028	172.43346	886.94781	-1286.76904	122.58717	855.16742	-1282.37659	195.17380	801.08612	-863.83368	-42.08248	1397.67871	-778.37616	-112.64397	1209.73584	-765.78357	-124.79945	1087.73560	-745.92517	-136.13387	968.01239	-772.56702	-109.35246	817.98663	-733.85010	-162.62305	832.18018	-730.99359	-144.66252	749.27173	-1135.58716	18.57427	956.88898	-915.85046	31.29363	962.07214	-1097.15869	-136.30995	985.58209	-930.11292	-120.61351	982.94543	-1180.16272	-60.29340	640.43945	-1151.59570	-70.43578	476.92459	-1136.93079	-152.98700	231.69708	-1087.74561	-193.73637	65.87914	-1042.83594	-238.47096	56.44143	-1084.36621	-53.15206	34.44401	-860.32965	75.44075	644.38953	-890.53107	131.01012	533.15271	-891.69080	82.39059	274.71371	-932.77814	55.49412	90.84412	-979.94165	15.42607	68.38475	-925.69519	199.29926	43.74522	-1011.04370	-59.43736	1695.60803												 
82	0.810	-1062.65088	57.44769	1654.78564	-932.64233	44.67762	1635.29773	-1079.42993	-76.34457	1607.28967	-951.55853	-87.47699	1592.24414	-1027.08545	-88.88773	1444.30359	-1018.19226	-135.09926	1117.47119	-1024.85962	18.98686	1363.65112	-1035.91382	52.75850	1188.86255	-951.10718	-169.31741	1276.62842	-1186.53186	-35.28994	1399.51367	-1262.91052	-12.36279	1200.59204	-1278.38049	7.88043	1089.51050	-1295.10364	92.80460	965.12439	-1244.94556	196.38269	893.41309	-1284.69873	148.36882	859.58264	-1278.57800	222.63437	807.91400	-863.87518	-28.92108	1395.54004	-778.46918	-100.60603	1208.00659	-766.07239	-113.79440	1086.16406	-746.09564	-126.22778	966.57227	-772.33484	-100.60554	816.17633	-733.71710	-153.80017	831.09857	-730.94305	-136.85080	747.88586	-1136.27979	31.02240	954.71082	-916.48389	45.12054	960.35687	-1097.07007	-123.72856	983.64301	-930.01550	-107.14360	981.18555	-1180.02673	-50.83097	638.73340	-1151.53455	-63.68211	475.41055	-1136.43396	-149.30066	231.50554	-1087.35608	-192.95145	66.14182	-1042.44263	-237.91502	57.04881	-1084.28088	-52.78336	34.46053	-859.64862	89.27663	642.69458	-890.03265	145.44922	532.20288	-891.58405	110.11307	271.20746	-933.43530	93.89965	86.38336	-980.96387	55.75131	62.55739	-926.96741	239.42671	44.74319	-1010.52191	-46.13823	1693.71240												 
